# xmcd CD database file
#
# Track frame offsets:
#	150
#	18791
#	34222
#	47221
#	64154
#	81809
#	99442
#	115323
#	133362
#	147424
#	165891
#	186864
#	205320
#	224319
#	237908
#
# Disc length: 3437 seconds
#
# Revision: 2
# Processed by: cddbd v1.5.2PL0 Copyright (c) Steve Scherf et al.
# Submitted via: CDex 1.70beta2
#
DISCID=d60d6b0f
DTITLE=Various Artist - Bachata 2014 CD2
DYEAR=2014
DGENRE=Salsa
TTITLE0=Principes De La Bachata feat. Insurrecto - Amor de Novelas
TTITLE1=Angeles De La Bachata - Amor Perdido
TTITLE2=King Of Love - Quiero Estar Contigo
TTITLE3=La Republica - Solo Recuerdes
TTITLE4=Senor Bachata - Eres Tu
TTITLE5=Los 3men2 - De REgreso a Ti
TTITLE6=Ksanova - El Culpable
TTITLE7=Senor Bachata - Ella
TTITLE8=Principes De La Bachata - Solo Sexo
TTITLE9=Grupo Extra - Burbujas De Amor
TTITLE10=Ksanova - No te Conozce
TTITLE11=King Famaly - Loco De Amor
TTITLE12=King Of Love - Muero Por Ti
TTITLE13=Principes De La Bachata feat. Beatriz Marquez - Necesito De Ti
TTITLE14=Grupo Extra - Careless Whisper (Bachata Urbana)
EXTD=YEAR: 2014
EXTT0=
EXTT1=
EXTT2=
EXTT3=
EXTT4=
EXTT5=
EXTT6=
EXTT7=
EXTT8=
EXTT9=
EXTT10=
EXTT11=
EXTT12=
EXTT13=
EXTT14=
PLAYORDER=
